<?xml version="1.0" encoding="utf-8"?>
<!-- Generator: Adobe Illustrator 16.0.0, SVG Export Plug-In . SVG Version: 6.00 Build 0)  -->
<!DOCTYPE svg PUBLIC "-//W3C//DTD SVG 1.1//EN" "http://www.w3.org/Graphics/SVG/1.1/DTD/svg11.dtd">
<svg version="1.1" id="Ebene_1" xmlns="http://www.w3.org/2000/svg" xmlns:xlink="http://www.w3.org/1999/xlink" x="0px" y="0px"
	 width="104.88px" height="141.73px" viewBox="0 0 104.88 141.73" enable-background="new 0 0 104.88 141.73" xml:space="preserve">
<g>
	<polygon points="20.869,97.034 20.869,90.038 20.21,90.038 20.21,93.007 16.651,93.007 16.651,90.038 15.992,90.038 15.992,97.034 
		16.651,97.034 16.651,93.626 20.21,93.626 20.21,97.034 	"/>
	<path d="M26.41,89.958c-1.64,0-3.068,1.359-3.068,3.578s1.429,3.578,3.068,3.578c1.639,0,3.068-1.359,3.068-3.578
		S28.049,89.958,26.41,89.958z M26.41,96.494c-1.31,0-2.379-0.999-2.379-2.958s1.069-2.958,2.379-2.958
		c1.309,0,2.379,0.999,2.379,2.958S27.719,96.494,26.41,96.494z"/>
	<path d="M36.634,94.926c-0.26,0.969-0.92,1.568-1.989,1.568c-1.399,0-2.398-1.049-2.398-2.958s0.999-2.958,2.398-2.958
		c1.069,0,1.729,0.6,1.989,1.568l0.649-0.189c-0.35-1.22-1.299-1.999-2.639-1.999c-1.569,0-3.088,1.149-3.088,3.578
		s1.509,3.578,3.088,3.578c1.34,0,2.289-0.779,2.639-1.999L36.634,94.926z"/>
	<polygon points="44.517,97.034 44.517,90.038 43.857,90.038 43.857,93.007 40.299,93.007 40.299,90.038 39.64,90.038 39.64,97.034 
		40.299,97.034 40.299,93.626 43.857,93.626 43.857,97.034 	"/>
	<path d="M48.936,96.494c-0.97,0-1.339-0.779-1.569-1.608l-0.569,0.34c0.229,1.089,0.97,1.889,2.139,1.889
		c1.129,0,1.999-0.79,1.999-2.049c0-2.309-3.049-1.759-3.049-3.469c0-0.489,0.32-1.019,0.97-1.019c0.43,0,0.83,0.17,1.159,0.799
		l0.54-0.34c-0.33-0.6-0.68-1.079-1.699-1.079c-0.88,0-1.629,0.68-1.629,1.719c0,2.109,3.019,1.67,3.019,3.408
		C50.245,96.024,49.686,96.494,48.936,96.494z"/>
	<path d="M58.629,95.115l-0.649-0.189c-0.26,0.969-0.92,1.568-1.989,1.568c-1.399,0-2.398-1.049-2.398-2.958
		s0.999-2.958,2.398-2.958c1.069,0,1.729,0.6,1.989,1.568l0.649-0.189c-0.35-1.22-1.299-1.999-2.639-1.999
		c-1.569,0-3.088,1.149-3.088,3.578s1.509,3.578,3.088,3.578C57.33,97.114,58.279,96.335,58.629,95.115z"/>
	<polygon points="65.862,97.034 65.862,90.038 65.203,90.038 65.203,93.007 61.645,93.007 61.645,90.038 60.985,90.038 
		60.985,97.034 61.645,97.034 61.645,93.626 65.203,93.626 65.203,97.034 	"/>
	<path d="M73.439,90.038h-0.66v4.817c0,0.869-0.569,1.639-1.738,1.639c-1.17,0-1.739-0.77-1.739-1.639v-4.817h-0.66v4.758
		c0,1.539,1.13,2.318,2.399,2.318c1.269,0,2.398-0.779,2.398-2.318V90.038z"/>
	<polygon points="80.156,96.414 76.878,96.414 76.878,90.038 76.219,90.038 76.219,97.034 80.156,97.034 	"/>
	<polygon points="86.01,96.414 82.621,96.414 82.621,93.616 85.31,93.616 85.31,92.996 82.621,92.996 82.621,90.657 85.909,90.657 
		85.909,90.038 81.962,90.038 81.962,97.034 86.01,97.034 	"/>
	<polygon points="20.01,100.657 20.01,100.038 15.992,100.038 15.992,107.034 16.651,107.034 16.651,103.696 19.41,103.696 
		19.41,103.076 16.651,103.076 16.651,100.657 	"/>
	<path d="M24.351,99.552c0-0.28-0.21-0.5-0.489-0.5c-0.28,0-0.49,0.22-0.49,0.5c0,0.27,0.21,0.479,0.49,0.479
		C24.141,100.031,24.351,99.821,24.351,99.552z"/>
	<path d="M25.89,99.552c0-0.28-0.22-0.5-0.5-0.5c-0.26,0-0.479,0.22-0.479,0.5c0,0.27,0.22,0.479,0.479,0.479
		C25.67,100.031,25.89,99.821,25.89,99.552z"/>
	<path d="M27.029,104.796v-4.145h-0.66v4.204c0,0.869-0.569,1.639-1.738,1.639c-1.17,0-1.739-0.77-1.739-1.639v-4.204h-0.66v4.145
		c0,1.539,1.13,2.318,2.399,2.318C25.899,107.114,27.029,106.335,27.029,104.796z"/>
	<path d="M34.057,101.807c0-1.188-0.76-1.769-1.999-1.769H29.81v6.996h0.659v-3.458h1.31l2.188,3.458h0.74l-2.18-3.488
		C33.487,103.416,34.057,102.837,34.057,101.807z M32.018,102.956h-1.549v-2.299h1.549c0.9,0,1.37,0.351,1.37,1.149
		C33.388,102.606,32.918,102.956,32.018,102.956z"/>
	<polygon points="43.187,105.305 41.107,100.038 40.288,100.038 40.288,107.034 40.947,107.034 40.947,101.317 42.977,106.395 
		43.396,106.395 45.425,101.317 45.425,107.034 46.085,107.034 46.085,100.038 45.265,100.038 	"/>
	<path d="M53.002,104.855c0,0.869-0.569,1.639-1.738,1.639c-1.17,0-1.739-0.77-1.739-1.639v-4.817h-0.66v4.758
		c0,1.539,1.13,2.318,2.399,2.318c1.269,0,2.398-0.779,2.398-2.318v-4.758h-0.66V104.855z"/>
	<path d="M57.962,107.114c1.129,0,1.999-0.79,1.999-2.049c0-2.309-3.049-1.759-3.049-3.469c0-0.489,0.32-1.019,0.97-1.019
		c0.43,0,0.83,0.17,1.159,0.799l0.54-0.34c-0.33-0.6-0.68-1.079-1.699-1.079c-0.879,0-1.629,0.68-1.629,1.719
		c0,2.109,3.019,1.67,3.019,3.408c0,0.939-0.56,1.409-1.31,1.409c-0.97,0-1.339-0.779-1.569-1.608l-0.569,0.34
		C56.053,106.314,56.793,107.114,57.962,107.114z"/>
	<rect x="62.341" y="100.038" width="0.659" height="6.996"/>
	<polygon points="66.507,103.326 69.516,107.034 70.325,107.034 67.207,103.177 70.075,100.038 69.235,100.038 66.507,103.026 
		66.507,100.038 65.848,100.038 65.848,107.034 66.507,107.034 	"/>
	<polygon points="20.09,112.696 17.291,112.696 17.291,110.038 15.992,110.038 15.992,117.034 17.291,117.034 17.291,113.896 
		20.09,113.896 20.09,117.034 21.389,117.034 21.389,110.038 20.09,110.038 	"/>
	<path d="M25.6,110.038l-2.369,6.996h1.398l0.51-1.649h2.219l0.51,1.649h1.4l-2.369-6.996H25.6z M25.51,114.186l0.738-2.429
		l0.74,2.429H25.51z"/>
	<polygon points="35.045,114.655 32.477,110.038 31.107,110.038 31.107,117.034 32.408,117.034 32.408,112.417 34.977,117.034 
		36.346,117.034 36.346,110.038 35.045,110.038 	"/>
	<polygon points="44.215,110.038 42.914,110.038 42.914,114.655 40.346,110.038 38.977,110.038 38.977,117.034 40.277,117.034 
		40.277,112.417 42.846,117.034 44.215,117.034 	"/>
	<path d="M48.746,115.915c-0.76,0-1.18-0.67-1.389-1.42l-1.051,0.66c0.221,1.069,1.141,1.959,2.41,1.959
		c1.338,0,2.238-0.81,2.238-2.179c0-2.079-2.988-1.919-2.988-3.139c0-0.369,0.289-0.64,0.67-0.64c0.408,0,0.699,0.22,0.969,0.74
		l1.049-0.67c-0.379-0.81-1.088-1.27-2.018-1.27c-1.1,0-1.91,0.84-1.91,1.899c0,2.219,2.93,1.988,2.93,3.147
		C49.656,115.645,49.285,115.915,48.746,115.915z"/>
	<polygon points="57.283,113.906 59.712,113.906 59.712,112.707 57.283,112.707 57.283,111.237 60.312,111.237 60.312,110.038 
		55.983,110.038 55.983,117.034 60.411,117.034 60.411,115.835 57.283,115.835 	"/>
	<rect x="62.646" y="110.038" width="1.3" height="6.996"/>
	<path d="M67.677,111.797c0-0.369,0.29-0.64,0.67-0.64c0.409,0,0.699,0.22,0.97,0.74l1.049-0.67c-0.38-0.81-1.089-1.27-2.019-1.27
		c-1.1,0-1.909,0.84-1.909,1.899c0,2.219,2.929,1.988,2.929,3.147c0,0.64-0.37,0.91-0.91,0.91c-0.759,0-1.179-0.67-1.389-1.42
		l-1.05,0.66c0.22,1.069,1.14,1.959,2.409,1.959c1.339,0,2.238-0.81,2.238-2.179C70.665,112.856,67.677,113.017,67.677,111.797z"/>
	<polygon points="74.105,110.038 72.806,110.038 72.806,117.034 77.073,117.034 77.073,115.835 74.105,115.835 	"/>
	<polygon points="79.972,113.906 82.4,113.906 82.4,112.707 79.972,112.707 79.972,111.237 83,111.237 83,110.038 78.672,110.038 
		78.672,117.034 83.1,117.034 83.1,115.835 79.972,115.835 	"/>
	<path d="M88.69,113.906c0.85-0.26,1.31-0.96,1.31-1.879c0-1.16-0.729-1.989-2.129-1.989h-2.549v6.996h1.3v-3.019h0.68l1.879,3.019
		h1.449L88.69,113.906z M87.881,112.816h-1.259v-1.579h1.259c0.47,0,0.819,0.22,0.819,0.79
		C88.7,112.597,88.351,112.816,87.881,112.816z"/>
	<path d="M19.859,123.216c0.439-0.229,0.689-0.719,0.689-1.289c0-1.27-0.809-1.889-1.998-1.889h-2.559v6.996H18.6
		c1.43,0,2.309-0.75,2.309-2.108C20.908,124.036,20.52,123.486,19.859,123.216z M17.291,121.237h1.16c0.549,0,0.85,0.19,0.85,0.76
		s-0.301,0.76-0.82,0.76h-1.189V121.237z M18.48,125.835h-1.189v-1.879h1.189c0.809,0,1.129,0.34,1.129,0.939
		S19.289,125.835,18.48,125.835z"/>
	<polygon points="24.438,123.906 26.865,123.906 26.865,122.707 24.438,122.707 24.438,121.237 27.465,121.237 27.465,120.038 
		23.137,120.038 23.137,127.034 27.564,127.034 27.564,125.835 24.438,125.835 	"/>
	<path d="M34.469,122.027c0-1.16-0.729-1.989-2.129-1.989h-2.549v6.996h1.301v-3.019h0.68l1.879,3.019H35.1l-1.939-3.128
		C34.01,123.646,34.469,122.946,34.469,122.027z M32.35,122.816h-1.258v-1.579h1.258c0.471,0,0.82,0.22,0.82,0.79
		C33.17,122.597,32.82,122.816,32.35,122.816z"/>
	<polygon points="38.381,120.038 37.08,120.038 37.08,127.034 41.348,127.034 41.348,125.835 38.381,125.835 	"/>
	<rect x="42.947" y="120.038" width="1.299" height="6.996"/>
	<polygon points="50.798,124.655 48.23,120.038 46.861,120.038 46.861,127.034 48.16,127.034 48.16,122.417 50.728,127.034 
		52.097,127.034 52.097,120.038 50.798,120.038 	"/>
	<path d="M19.691,57.824l-3.71,0.042v5.672l3.71,0.038c10.615,0,19.218,8.606,19.218,19.22c0,0.312,0,0.925,0,0.925h5.745
		c0,0,0-0.613,0-0.925c0-9.601-6.191-18.589-14.365-22.095c7.37-3.121,13.129-11.203,14.214-19.565
		C58.35,39.553,68.754,27.862,69.137,13.74h-5.896c0,10.902-7.995,20.479-18.552,21.759C42.738,23.514,32.022,13.912,19.78,13.648
		l-5.687,0.043c0,0,0,2.514,0.463,4.979c2.148,11.963,12.696,21.506,24.145,22.615C37.396,50.628,29.395,57.824,19.691,57.824z
		 M20.688,19.116c8.622,0.684,16.227,7.401,17.962,16.32C29.669,34.261,22.794,27.664,20.688,19.116z"/>
</g>
</svg>
